<svg xmlns="http://www.w3.org/2000/svg" version="1.1" width="512" height="512">
<path d="M0 0 C0.90040512 -0.00705963 1.80081024 -0.01411926 2.72850037 -0.02139282 C40.2726953 -0.24896892 40.2726953 -0.24896892 57.20703125 3.203125 C58.233125 3.40711914 59.25921875 3.61111328 60.31640625 3.82128906 C96.46654105 11.17767017 131.48239254 25.05032494 161.20703125 47.203125 C161.77035156 47.61771973 162.33367187 48.03231445 162.9140625 48.45947266 C180.8293852 61.69142792 197.53889307 76.55470482 211.20703125 94.203125 C212.38652344 95.67458984 212.38652344 95.67458984 213.58984375 97.17578125 C255.61474347 149.9971331 274.5605825 218.75033953 267.01953125 285.703125 C266.48676558 289.88245358 265.87364129 294.04315776 265.20703125 298.203125 C265.05137695 299.18087891 264.89572266 300.15863281 264.73535156 301.16601562 C259.31721203 333.58833561 246.99638338 365.57722698 229.20703125 393.203125 C228.7795459 393.86715332 228.35206055 394.53118164 227.91162109 395.21533203 C218.07056287 410.32148403 206.63650319 424.16361763 194.20703125 437.203125 C193.4490625 438.00234375 192.69109375 438.8015625 191.91015625 439.625 C186.38323152 445.30871692 180.40042713 450.26623101 174.20703125 455.203125 C173.12615234 456.11964844 173.12615234 456.11964844 172.0234375 457.0546875 C131.92617271 490.64776139 76.92641033 512.13041902 24.4140625 512.40625 C23.51365738 512.41330963 22.61325226 512.42036926 21.68556213 512.42764282 C-15.8586328 512.65521892 -15.8586328 512.65521892 -32.79296875 509.203125 C-34.33210938 508.89713379 -34.33210938 508.89713379 -35.90234375 508.58496094 C-72.05247855 501.22857983 -107.06833004 487.35592506 -136.79296875 465.203125 C-137.35628906 464.78853027 -137.91960937 464.37393555 -138.5 463.94677734 C-156.4153227 450.71482208 -173.12483057 435.85154518 -186.79296875 418.203125 C-187.57929688 417.22214844 -188.365625 416.24117188 -189.17578125 415.23046875 C-231.20068097 362.4091169 -250.14652 293.65591047 -242.60546875 226.703125 C-242.07270308 222.52379642 -241.45957879 218.36309224 -240.79296875 214.203125 C-240.63731445 213.22537109 -240.48166016 212.24761719 -240.32128906 211.24023438 C-234.90314953 178.81791439 -222.58232088 146.82902302 -204.79296875 119.203125 C-204.3654834 118.53909668 -203.93799805 117.87506836 -203.49755859 117.19091797 C-193.65650037 102.08476597 -182.22244069 88.24263237 -169.79296875 75.203125 C-169.035 74.40390625 -168.27703125 73.6046875 -167.49609375 72.78125 C-161.96916902 67.09753308 -155.98636463 62.14001899 -149.79296875 57.203125 C-149.07238281 56.59210937 -148.35179687 55.98109375 -147.609375 55.3515625 C-107.51211021 21.75848861 -52.51234783 0.27583098 0 0 Z M-28.79296875 27.203125 C-29.67452637 27.36409668 -30.55608398 27.52506836 -31.46435547 27.69091797 C-87.17602684 38.18031025 -139.17423792 70.41186892 -172.79296875 116.203125 C-173.64057312 117.3320702 -174.48822941 118.46097643 -175.3359375 119.58984375 C-211.78061455 168.73877767 -225.99092692 230.8928881 -217.36865234 291.16943359 C-212.26925017 324.53530388 -200.09610317 357.4014567 -180.79296875 385.203125 C-180.27508789 385.95255371 -179.75720703 386.70198242 -179.22363281 387.47412109 C-171.24207941 398.91062011 -162.56685972 409.2702611 -152.79296875 419.203125 C-151.81302786 420.22060908 -150.83382393 421.2388036 -149.85546875 422.2578125 C-135.47637993 437.00454847 -118.67338179 449.07324673 -100.79296875 459.203125 C-100.20080566 459.5444043 -99.60864258 459.88568359 -98.99853516 460.23730469 C-75.80810485 473.53442385 -49.96681639 481.36738829 -23.79296875 486.203125 C-22.70773926 486.40446045 -22.70773926 486.40446045 -21.60058594 486.60986328 C2.30697248 490.75376236 29.46042227 489.6853809 53.20703125 485.203125 C54.08858887 485.04215332 54.97014648 484.88118164 55.87841797 484.71533203 C111.59008934 474.22593975 163.58830042 441.99438108 197.20703125 396.203125 C198.05463562 395.0741798 198.90229191 393.94527357 199.75 392.81640625 C236.19467705 343.66747233 250.40498942 281.5133619 241.78271484 221.23681641 C236.68331267 187.87094612 224.51016567 155.0047933 205.20703125 127.203125 C204.68915039 126.45369629 204.17126953 125.70426758 203.63769531 124.93212891 C195.65614191 113.49562989 186.98092222 103.1359889 177.20703125 93.203125 C176.22709036 92.18564092 175.24788643 91.1674464 174.26953125 90.1484375 C159.89044243 75.40170153 143.08744429 63.33300327 125.20703125 53.203125 C124.61486816 52.8618457 124.02270508 52.52056641 123.41259766 52.16894531 C100.22216735 38.87182615 74.38087889 31.03886171 48.20703125 26.203125 C47.48354492 26.06890137 46.76005859 25.93467773 46.01464844 25.79638672 C22.10709002 21.65248764 -5.04635977 22.7208691 -28.79296875 27.203125 Z " fill="#6F79D6" transform="translate(243.79296875,-0.203125)"/>
<path d="M0 0 C6.96788355 3.8961392 13.78925134 7.98986167 20.56640625 12.20825195 C22.86672015 13.63219266 25.16741814 15.05549045 27.46875 16.4777832 C28.35099747 17.02349472 28.35099747 17.02349472 29.25106812 17.58023071 C35.68694486 21.55735936 42.15727615 25.47718021 48.62890625 29.39575195 C58.72618208 35.51261091 68.79179461 41.67870135 78.83984375 47.8762207 C86.74913249 52.75010444 94.68327625 57.58148028 102.62890625 62.39575195 C112.72569849 68.51341675 122.79178605 74.67869606 132.83984375 80.8762207 C140.74913549 85.75010629 148.68342284 90.58123466 156.62890625 95.39575195 C168.04065482 102.3119212 179.42714256 109.26710041 190.7734375 116.2902832 C194.3968631 118.53134108 198.03504543 120.74033558 201.703125 122.9074707 C202.45174805 123.35614502 203.20037109 123.80481934 203.97167969 124.26708984 C205.30739925 125.06649777 206.64992899 125.854709 208.00097656 126.62792969 C212.09772492 129.10347737 214.00107164 131.39732728 215.62890625 135.89575195 C215.87890625 138.2746582 215.87890625 138.2746582 215.62890625 140.45825195 C215.56703125 141.18141602 215.50515625 141.90458008 215.44140625 142.6496582 C212.9840164 149.4429234 205.28309274 152.75686155 199.44140625 156.20825195 C197.35760421 157.45747044 195.27428883 158.707501 193.19140625 159.95825195 C192.10988281 160.60536133 191.02835938 161.2524707 189.9140625 161.91918945 C184.56301736 165.13872434 179.25385611 168.42556843 173.94140625 171.70825195 C164.27277466 177.67024937 154.57457237 183.58142199 144.85977173 189.46768188 C136.42873965 194.57704123 128.01968196 199.72041949 119.62890625 204.89575195 C110.06383884 210.79537382 100.46982645 216.64492413 90.85839844 222.46850586 C82.42782447 227.57759196 74.01927038 232.72076883 65.62890625 237.89575195 C54.84514659 244.54594248 44.02642584 251.13645356 33.19137573 257.70256042 C32.62033112 258.04861832 32.0492865 258.39467621 31.4609375 258.7512207 C30.89335724 259.09514359 30.32577698 259.43906647 29.74099731 259.79341125 C25.78617896 262.19096655 21.83716034 264.5978718 17.890625 267.0090332 C16.83319092 267.65469238 15.77575684 268.30035156 14.6862793 268.96557617 C12.70128387 270.17816222 10.71702755 271.39195932 8.73364258 272.60717773 C7.85345459 273.14455566 6.9732666 273.68193359 6.06640625 274.2355957 C5.30199219 274.70344482 4.53757813 275.17129395 3.75 275.65332031 C-1.01416107 278.44392985 -3.67806043 279.25615761 -9.1796875 278.51293945 C-12.56247491 277.56021145 -14.25346623 275.60896221 -16.37109375 272.89575195 C-17.54527934 270.54738077 -17.499447 269.16131855 -17.50531483 266.54343033 C-17.50977267 265.62353199 -17.51423051 264.70363366 -17.51882344 263.75585961 C-17.51863908 262.73856766 -17.51845472 261.72127572 -17.51826477 260.67315674 C-17.52194146 259.59762346 -17.52561815 258.52209018 -17.52940625 257.41396499 C-17.54047839 253.78581893 -17.54429289 250.15770147 -17.5480957 246.52954102 C-17.55435765 243.93802804 -17.56100421 241.34651596 -17.56800842 238.75500488 C-17.58778301 230.96041862 -17.59784047 223.16583104 -17.60673621 215.37122595 C-17.61111764 211.70200937 -17.61648484 208.03279423 -17.62172508 204.3635788 C-17.63873864 192.1685173 -17.65323313 179.97345671 -17.66047382 167.77838516 C-17.66238377 164.61275481 -17.66430409 161.44712447 -17.66625977 158.28149414 C-17.66674351 157.49467671 -17.66722725 156.70785927 -17.66772565 155.89719889 C-17.67602713 143.14934433 -17.70136545 130.40158358 -17.73384044 117.65377 C-17.76689895 104.57039224 -17.7849215 91.48706217 -17.78811806 78.40364242 C-17.79028433 71.05594427 -17.79904983 63.70838289 -17.82457924 56.3607254 C-17.84853594 49.44967533 -17.8521195 42.53887534 -17.84181786 35.62779236 C-17.8413208 33.08891227 -17.84769091 30.55002032 -17.8613739 28.01117706 C-17.87899024 24.54924702 -17.87203636 21.08821142 -17.85884094 17.62628174 C-17.86981019 16.61791268 -17.88077943 15.60954361 -17.89208108 14.57061791 C-17.83789321 8.69563866 -17.24829186 5.39187733 -13.37109375 0.89575195 C-9.32601749 -2.17292659 -4.5351131 -2.11205895 0 0 Z M6.62890625 32.89575195 C6.62890625 102.85575195 6.62890625 172.81575195 6.62890625 244.89575195 C18.54684606 238.08587142 18.54684606 238.08587142 30.25390625 230.95825195 C38.57179142 225.77276662 46.93200756 220.66024286 55.31640625 215.58325195 C64.44221264 210.05543875 73.54803746 204.49724918 82.62890625 198.89575195 C92.19394621 192.99608595 101.78798638 187.14657957 111.39941406 181.32299805 C120.88761313 175.57297128 130.35166055 169.78513689 139.78271484 163.94165039 C144.98717165 160.72330438 150.20600445 157.54031692 155.47833252 154.43469238 C158.10404305 152.88774602 160.72383345 151.33090317 163.34375 149.77416992 C164.60978538 149.02626405 165.87897725 148.28367402 167.15136719 147.54663086 C168.91454054 146.52503571 170.66656569 145.48427192 172.41796875 144.44262695 C173.42553223 143.85320312 174.4330957 143.2637793 175.47119141 142.65649414 C176.1832373 142.07544922 176.8952832 141.4944043 177.62890625 140.89575195 C177.62890625 139.57575195 177.62890625 138.25575195 177.62890625 136.89575195 C176.19761189 135.4888947 176.19761189 135.4888947 174.16796875 134.44262695 C173.40033203 133.99701416 172.63269531 133.55140137 171.84179688 133.09228516 C170.98779297 132.6149292 170.13378906 132.13757324 169.25390625 131.64575195 C167.40123645 130.57344406 165.54972951 129.49912522 163.69921875 128.4230957 C162.21470215 127.56627197 162.21470215 127.56627197 160.70019531 126.69213867 C155.45306041 123.62310698 150.2956579 120.41011627 145.12890625 117.20825195 C135.9860168 111.56415884 126.81866588 105.96304175 117.62890625 100.39575195 C107.53200851 94.27826284 97.46602462 88.11280671 87.41796875 81.9152832 C79.50867701 77.04139761 71.57438966 72.21026924 63.62890625 67.39575195 C46.36993293 56.93583166 29.12274123 46.44760047 12.08105469 35.63623047 C9.53919344 33.72774236 9.53919344 33.72774236 6.62890625 32.89575195 Z " fill="#7973D5" transform="translate(180.37109375,117.104248046875)"/>
</svg>